# xmcd
#
# Track frame offsets:
#	152
#	15345
#	27812
#	40189
#	50389
#	61801
#	71294
#	84164
#	96096
#	106229
#	113971
#	130428
#	142239
#	155129
#	169954
#	181065
#	192603
#	200544
#	212268
#	222429
#	234160
#	242803
#
# Disc length: 3429
#
# Revision: 2
# Processed by: cddbd v1.5.1PL0 Copyright (c) Steve Scherf et al.
# Submitted via: CDex 1.50Beta3
# Normalized: r1:TDELIM( - )
#
DISCID=300d6316
DTITLE=Masters Of Classic Jazz - The Piano [CD2]
DYEAR=1900
DGENRE=Jazz
TTITLE0=Jess Stacy - Rosetta
TTITLE1=Art hodes - My daddy rocks me with one steady roll
TTITLE2=Mary Lou Williams - Limehouse blues
TTITLE3=Art Tatum - I got rhythm
TTITLE4=Jess Stacy - Keeping out of mischief now
TTITLE5=Art Hodes - Really the blues
TTITLE6=Mary Lou Williams - Taurus mood
TTITLE7=Art Tatum - cocktails for two
TTITLE8=Jess Stacy - I wish I could shimmy like my sister kate
TTITLE9=Art Hodes - Fifty-second street getaway
TTITLE10=Mary lou Williams - People will say we're in love
TTITLE11=Art Tatum - I ain't got nobody
TTITLE12=Jess Stacy - Honeysuckle rose
TTITLE13=Art Hodes - Apex blues
TTITLE14=Art Tatum - After you've gone
TTITLE15=Jess Stacy - Cherry
TTITLE16=Art Hodes - Sheik of Araby
TTITLE17=Art Tatum - Moonglow
TTITLE18=Herman Chittison - Persian rug
TTITLE19=Jess Stacy - Jumpin' with Jess
TTITLE20=Art Hodes - Bugle Call Rag
TTITLE21=Mary Lou Williams - Roll 'em
EXTD=
EXTT0=
EXTT1=
EXTT2=
EXTT3=
EXTT4=
EXTT5=
EXTT6=
EXTT7=
EXTT8=
EXTT9=
EXTT10=
EXTT11=
EXTT12=
EXTT13=
EXTT14=
EXTT15=
EXTT16=
EXTT17=
EXTT18=
EXTT19=
EXTT20=
EXTT21=
PLAYORDER=
